<svg id="Layer_1" data-name="Layer 1" xmlns="http://www.w3.org/2000/svg" viewBox="0 0 512 386.25"><defs><style>.cls-1{fill:#fff;}</style></defs><title>camera_icon</title><path class="cls-1" d="M496.5,126.33h-1.81V104a7.5,7.5,0,0,0-7.5-7.5H434.92a7.5,7.5,0,0,0-7.5,7.5v22.35H393.6a7.5,7.5,0,0,0-.53-2.47L370.52,67.58a7.51,7.51,0,0,0-7-4.71H341.5a7.5,7.5,0,1,0,0,15h17l19.42,48.46H137.59L157,77.87H308.5a7.5,7.5,0,0,0,0-15H151.93a7.51,7.51,0,0,0-7,4.71l-22.55,56.28a7.7,7.7,0,0,0-.53,2.47H95.69V94.86a7.49,7.49,0,0,0-7.5-7.5h-45a7.5,7.5,0,0,0-7.5,7.5v31.47H29.73V114.55a7.5,7.5,0,0,0-15,0v11.82A15.5,15.5,0,0,0,0,141.83v291.8a15.52,15.52,0,0,0,15.5,15.5H98a7.5,7.5,0,0,0,0-15H15.5a.5.5,0,0,1-.5-.5V417.52H164.33a7.5,7.5,0,1,0,0-15H15V141.83a.5.5,0,0,1,.5-.5h481a.5.5,0,0,1,.5.5V402.52H425.68a7.5,7.5,0,0,0,0,15H497v16.11a.5.5,0,0,1-.5.5H131.66a7.5,7.5,0,1,0,0,15H496.5a15.51,15.51,0,0,0,15.5-15.5V141.83A15.52,15.52,0,0,0,496.5,126.33Zm-54.08-14.85h37.27v14.85H442.42ZM80.69,126.33H74.58v-24h6.11Zm-30-24h8.91v24H50.67Z" transform="translate(0 -62.87)"/><path class="cls-1" d="M364.07,256.51a7.5,7.5,0,0,0-14.07,5.2A85.09,85.09,0,1,1,335.74,237a7.5,7.5,0,1,0,11.55-9.57,99.66,99.66,0,1,0,16.78,29.07Z" transform="translate(0 -62.87)"/><path class="cls-1" d="M401.37,291.22c0-72.3-58.82-131.13-131.13-131.13-62.17,0-114.38,43.5-127.78,101.66H115.22a30.73,30.73,0,1,0,0,61.46h27.85c14.32,56.9,65.9,99.14,127.17,99.14A131.27,131.27,0,0,0,401.37,291.22Zm-286.15,17a15.73,15.73,0,1,1,0-31.46h24.7a130.47,130.47,0,0,0-.81,14.47,132.51,132.51,0,0,0,1.1,17h-25Zm155,99.14A116.13,116.13,0,1,1,386.37,291.22,116.25,116.25,0,0,1,270.24,407.35Z" transform="translate(0 -62.87)"/><path class="cls-1" d="M472.46,214.24a7.5,7.5,0,0,0,7.5-7.5V169.48a7.5,7.5,0,0,0-7.5-7.5H418.8a7.5,7.5,0,0,0-7.5,7.5v37.26a7.49,7.49,0,0,0,7.5,7.5ZM426.3,177H465v22.26H426.3Z" transform="translate(0 -62.87)"/><path class="cls-1" d="M193.58,101a7.5,7.5,0,0,0,7.5,7.5H319.66a7.5,7.5,0,0,0,0-15H201.08A7.5,7.5,0,0,0,193.58,101Z" transform="translate(0 -62.87)"/></svg>