<svg id="Layer_1" data-name="Layer 1" xmlns="http://www.w3.org/2000/svg" viewBox="0 0 508.27 518.48"><defs><style>.cls-1,.cls-10,.cls-11,.cls-12,.cls-13,.cls-14,.cls-15,.cls-16,.cls-17,.cls-18,.cls-19,.cls-2,.cls-20,.cls-21,.cls-22,.cls-23,.cls-24,.cls-25,.cls-26,.cls-3,.cls-4,.cls-5,.cls-6,.cls-7,.cls-8,.cls-9{fill:#f9f9f9;}.cls-10,.cls-11,.cls-12,.cls-13,.cls-14,.cls-15,.cls-16,.cls-17,.cls-18,.cls-19,.cls-2,.cls-20,.cls-21,.cls-22,.cls-23,.cls-24,.cls-25,.cls-26,.cls-3,.cls-4,.cls-5,.cls-6,.cls-7,.cls-8,.cls-9{isolation:isolate;font-family:JuliusSansOne-Regular, Julius Sans One;}.cls-2{font-size:51.14px;}.cls-3{font-size:50.97px;}.cls-4{font-size:50.74px;}.cls-5{font-size:50.52px;}.cls-6{font-size:50.27px;}.cls-7{font-size:50.21px;}.cls-8{font-size:50.11px;}.cls-9{font-size:50.09px;}.cls-10{font-size:50.22px;}.cls-11{font-size:50.39px;}.cls-12{font-size:50.58px;}.cls-13{font-size:50.81px;}.cls-14{font-size:50.89px;}.cls-15{font-size:51.14px;}.cls-16{font-size:51.09px;}.cls-17{font-size:50.74px;}.cls-18{font-size:50.49px;}.cls-19{font-size:50.3px;}.cls-20{font-size:50.36px;}.cls-21{font-size:50.07px;}.cls-22{font-size:50.1px;}.cls-23{font-size:50.24px;}.cls-24{font-size:50.45px;}.cls-25{font-size:50.68px;}.cls-26{font-size:50.88px;}</style></defs><title>logo_mazzola</title><g id="_4" data-name=" 4"><path class="cls-1" d="M250.55,112.69c-74.77,0-135.38,59.23-135.38,132.29s60.61,132.29,135.38,132.29S385.93,318,385.93,245h0C385.84,171.94,325.28,112.77,250.55,112.69Zm6.81,255.39c-2,.09-4.05.16-6.09.17h-.72c-43.41.08-83.78-21.74-106.78-57.71-1.07-1.66-2.13-3.42-3.14-5.12a120.69,120.69,0,0,1-2.2-117c.9-1.69,1.86-3.42,2.94-5.23C162.88,146.74,202,123.58,245,121.81c1.88-.08,3.75-.11,5.53-.11h.56c42.86.12,82.7,21.56,105.72,56.89,1.05,1.59,2.09,3.25,3.17,5.07a121,121,0,0,1,16.7,61.25A119.67,119.67,0,0,1,363,300.78c-.92,1.75-1.9,3.51-2.9,5.23C338.9,342.45,300.19,365.84,257.36,368.08Z" transform="translate(4.14 9.24)"/><path class="cls-1" d="M274,284.65l88.49-101.37-.42-.7c-1.1-1.85-2.15-3.55-3.21-5.16l-.85-1.29L297.85,245,251.94,119.42h-1.39c-1.8,0-3.7,0-5.63.12l-1.58.06,31,85L139.81,181.35l-.41.68c-1.16,1.87-2.08,3.61-3,5.33l-.72,1.38,90.94,15.69L138.72,305.24l-.52.61.41.68c1,1.78,2.09,3.53,3.19,5.23l.84,1.29,60.17-69,47.66,126.5h.81c2.08,0,4.16-.08,6.21-.18l1.57-.08L226.8,284.61l134.1,23.14.8.14.41-.7c1-1.74,2-3.54,3-5.33l.71-1.37Zm17.14-32.82-26.93,31-40.94-7.31-14-38.3,27-31,40.94,7.32Z" transform="translate(4.14 9.24)"/><text class="cls-2" transform="matrix(0.29, -0.94, 0.96, 0.28, 42.11, 213.61)">o</text><text class="cls-3" transform="matrix(0.48, -0.86, 0.88, 0.47, 57.77, 167.1)">r</text><text class="cls-4" transform="matrix(0.66, -0.75, 0.77, 0.64, 77.1, 133.19)">n</text><text class="cls-5" transform="matrix(0.79, -0.62, 0.63, 0.77, 110.1, 97.43)">e</text><text class="cls-6" transform="matrix(0.89, -0.49, 0.5, 0.87, 137.34, 77.03)">l</text><text class="cls-7" transform="matrix(0.95, -0.35, 0.36, 0.93, 166.79, 61.44)">l</text><text class="cls-8" transform="matrix(1, -0.19, 0.2, 0.98, 198.18, 50.36)">a</text><text class="cls-9" transform="matrix(1.01, 0.15, -0.16, 0.99, 264.25, 42.42)">M</text><text class="cls-10" transform="matrix(0.95, 0.37, -0.38, 0.93, 319.69, 52.73)">a</text><text class="cls-11" transform="matrix(0.86, 0.52, -0.54, 0.84, 355.89, 67.64)">z</text><text class="cls-12" transform="matrix(0.76, 0.66, -0.67, 0.74, 387.41, 87.61)">z</text><text class="cls-13" transform="matrix(0.6, 0.79, -0.81, 0.59, 414.65, 111.45)">o</text><text class="cls-14" transform="matrix(0.43, 0.89, -0.91, 0.42, 443.47, 151.68)">l</text><text class="cls-15" transform="matrix(0.28, 0.94, -0.96, 0.27, 457.53, 181.28)">a</text><text class="cls-16" transform="matrix(0.48, -0.86, 0.88, 0.47, 474.46, 387.32)">y</text><text class="cls-17" transform="matrix(0.66, -0.75, 0.77, 0.64, 437.07, 433.84)">h</text><text class="cls-18" transform="matrix(0.81, -0.6, 0.61, 0.79, 400.14, 463.1)">p</text><text class="cls-19" transform="matrix(0.91, -0.44, 0.45, 0.89, 356.06, 486.72)">a</text><text class="cls-20" transform="matrix(0.99, -0.26, 0.26, 0.96, 307.28, 501.62)">r</text><text class="cls-21" transform="matrix(1.02, -0.05, 0.05, 1, 249.3, 507.08)">g</text><text class="cls-22" transform="matrix(1.01, 0.18, -0.19, 0.98, 186.89, 498.5)">o</text><text class="cls-23" transform="matrix(0.94, 0.38, -0.39, 0.92, 142.93, 481.98)">t</text><text class="cls-24" transform="matrix(0.83, 0.57, -0.58, 0.81, 90.34, 449.76)">o</text><text class="cls-25" transform="matrix(0.67, 0.74, -0.76, 0.65, 47.71, 406.3)">h</text><text class="cls-26" transform="matrix(0.49, 0.86, -0.88, 0.48, 23.12, 366.54)">p</text><ellipse class="cls-1" cx="27.88" cy="260.97" rx="14.55" ry="14.22"/><ellipse class="cls-1" cx="475" cy="260.97" rx="14.55" ry="14.22"/></g></svg>